<svg id="Layer_1" data-name="Layer 1" xmlns="http://www.w3.org/2000/svg" viewBox="0 0 131 123"><defs><style>.cls-1{fill:#7ab5d6;stroke:#7ab5d6;stroke-linecap:round;stroke-linejoin:round;stroke-width:3px;}</style></defs><path class="cls-1" d="M95.5,2.17C83.86,2.17,72.38,1,61.82,6.65c-13.08,7-27.35,16.29-38,26.68a72.86,72.86,0,0,0-19.31,71c5.67,20.91,33.85,16.19,49.66,16.19,17.92,0,37.82-10,50.68-22.12,6.13-5.8,12.71-9.2,16.34-17.65,2.9-6.74,7.19-13.9,7.19-21.4,0-8.14,2.12-19.94-1.6-27.34-3.89-7.75-6.16-16.11-12.49-22.42-7.12-7.09-14-7.52-23.81-7.52"/></svg>