<?xml version="1.0" encoding="utf-8"?>
<!-- Generator: Adobe Illustrator 24.2.3, SVG Export Plug-In . SVG Version: 6.00 Build 0)  -->
<svg version="1.1" id="Layer_1" xmlns="http://www.w3.org/2000/svg" xmlns:xlink="http://www.w3.org/1999/xlink" x="0px" y="0px"
	 viewBox="0 0 131 123" style="enable-background:new 0 0 131 123;" xml:space="preserve">
<style type="text/css">
	.st0{fill:none;stroke:#7AB5D6;stroke-width:3;stroke-linecap:round;stroke-linejoin:round;}
	.st1{fill:none;stroke:#F2C94C;stroke-width:3;stroke-linecap:round;stroke-linejoin:round;}
	.st2{fill:#ABCA46;stroke:#ABCA46;stroke-width:3;stroke-linecap:round;stroke-linejoin:round;}
	.st3{fill:none;stroke:#ABCA46;stroke-width:3;stroke-linecap:round;stroke-linejoin:round;}
</style>
<path class="st2" d="M95.5,2.2C83.9,2.2,72.4,1,61.8,6.6c-13.1,7.1-27.3,16.3-38,26.7C5.1,51.6-2.4,78.9,4.5,104.3
	c5.7,20.9,33.9,16.2,49.7,16.2c17.9,0,37.8-10,50.7-22.1c6.1-5.8,12.7-9.2,16.3-17.6c2.9-6.7,7.2-13.9,7.2-21.4
	c0-8.1,2.1-19.9-1.6-27.3c-3.9-7.7-6.2-16.1-12.5-22.4c-7.1-7.1-14-7.5-23.8-7.5"/>
</svg>
