<svg width="131" height="123" viewBox="0 0 131 123" fill="none" xmlns="http://www.w3.org/2000/svg">
<path d="M95.5 2.1707C83.8591 2.1707 72.3801 0.950833 61.8167 6.6495C48.741 13.7035 34.4702 22.941 23.842 33.3337C5.12099 51.6398 -2.37599 78.9059 4.52795 104.347C10.2021 125.256 38.3847 120.545 54.1927 120.545C72.1055 120.545 92.0148 110.584 104.874 98.4171C111.003 92.6183 117.576 89.2188 121.211 80.7723C124.111 74.0339 128.399 66.8697 128.399 59.3671C128.399 51.232 130.516 39.4304 126.802 32.032C122.912 24.2832 120.644 15.92 114.313 9.61441C107.194 2.52389 100.304 2.09366 90.4973 2.09366" stroke="#7AB5D6" stroke-width="3" stroke-linecap="round" stroke-linejoin="round"/>
</svg>
